# xmcd
#
# Track frame offsets:
# 150
# 13902
# 33902
# 50162
# 65152
# 79877
# 94603
# 108863
# 121985
# 136216
# 147750
# 164024
# 179333
# 196657
#
# Disc length: 2818 seconds
#
#
# Revision: 0
# Processed by: cddbd v1.5.2PL0 Copyright (c) Steve Scherf et al.
# Submitted via: FreeRIP 2.96 
#
DISCID=c20b000e
DTITLE=Sampler - Beuge dich vor grauem Haar
DYEAR=1900
DGENRE=Folk
TTITLE0=Beuge dich vor grauem Haar (Alpentrio tirol)
TTITLE1=Ein Leben lang (Kastelruther Spatzen)
TTITLE2=Deine Jugend (Oswald Sattler)
TTITLE3=Später wann ist das (Monika Martin)
TTITLE4=Und i bet a Vaterunser (Marc Pircher)
TTITLE5=Du warst, du bist, du bleibst (Marianne and michael)
TTITLE6=Danke für Alles (Judith and Mel)
TTITLE7=Ich wünsch dir alles Gute (Mara Kayser)
TTITLE8=Samma a schu grau (Wolfgang Hermann)
TTITLE9=Buona Fortuna (Vincent and Fernando)
TTITLE10=Und die Sonne lacht (Janthje Smith)
TTITLE11=Bella Rosa (Zellberg Buam)
TTITLE12=Fang mi auf (Klostertaler)
TTITLE13=Irgendwo schlägt ein Herz auch für mich (Stephanie Hertel and Mross)
EXTD=
EXTT0=
EXTT1=
EXTT2=
EXTT3=
EXTT4=
EXTT5=
EXTT6=
EXTT7=
EXTT8=
EXTT9=
EXTT10=
EXTT11=
EXTT12=
EXTT13=
PLAYORDER=
